<svg width="62" height="62" viewBox="0 0 62 62" fill="none" xmlns="http://www.w3.org/2000/svg">
<rect x="0.5" y="0.5" width="61" height="61" rx="7.5" fill="white"/>
<rect x="0.5" y="0.5" width="61" height="61" rx="7.5" stroke="#F1F1F3"/>
<path fill-rule="evenodd" clip-rule="evenodd" d="M39.5 31C39.5 31.7042 38.9292 32.275 38.225 32.275H26.9405L30.6087 35.606C31.1163 36.094 31.1321 36.9011 30.6441 37.4087C30.156 37.9163 29.3489 37.9321 28.8413 37.4441L22.8913 31.9191C22.6413 31.6787 22.5 31.3468 22.5 31C22.5 30.6532 22.6413 30.3213 22.8913 30.081L28.8413 24.556C29.3489 24.0679 30.156 24.0837 30.6441 24.5913C31.1321 25.0989 31.1163 25.906 30.6087 26.3941L26.9405 29.725H38.225C38.9292 29.725 39.5 30.2959 39.5 31Z" fill="#262626"/>
</svg>
