<svg width="62" height="62" viewBox="0 0 62 62" fill="none" xmlns="http://www.w3.org/2000/svg">
<rect x="0.5" y="0.5" width="61" height="61" rx="7.5" fill="white"/>
<rect x="0.5" y="0.5" width="61" height="61" rx="7.5" stroke="#F1F1F3"/>
<path fill-rule="evenodd" clip-rule="evenodd" d="M22.5 31C22.5 30.2958 23.0708 29.725 23.775 29.725H35.0595L31.3913 26.3941C30.8837 25.906 30.8679 25.0989 31.3559 24.5913C31.844 24.0837 32.6511 24.0679 33.1587 24.556L39.1087 30.081C39.3587 30.3213 39.5 30.6532 39.5 31C39.5 31.3468 39.3587 31.6787 39.1087 31.9191L33.1587 37.4441C32.6511 37.9321 31.844 37.9163 31.3559 37.4087C30.8679 36.9011 30.8837 36.094 31.3913 35.606L35.0595 32.275H23.775C23.0708 32.275 22.5 31.7042 22.5 31Z" fill="#262626"/>
</svg>
